<svg xmlns="http://www.w3.org/2000/svg" viewBox="0 0 400 80"><path d="M34 0C15.2 0 0 15.2 0 34c0 15 9.7 27.8 23.2 32.3 1.7.3 2.3-.7 2.3-1.6v-5.6c-9.4 2-11.4-4.6-11.4-4.6-1.5-3.9-3.8-5-3.8-5-3.1-2.1.2-2.1.2-2.1 3.4.2 5.2 3.5 5.2 3.5 3 5.2 8 3.7 9.9 2.8.3-2.2 1.2-3.7 2.2-4.6-7.5-.9-15.4-3.8-15.4-16.8 0-3.7 1.3-6.7 3.5-9.1-.4-.8-1.5-4.3.3-8.9 0 0 2.8-.9 9.3 3.5 2.7-.8 5.6-1.1 8.5-1.1 2.9 0 5.8.4 8.5 1.1 6.4-4.4 9.3-3.5 9.3-3.5 1.8 4.6.7 8.1.3 8.9 2.2 2.4 3.5 5.4 3.5 9.1 0 13-7.9 15.9-15.5 16.7 1.2 1.1 2.3 3.1 2.3 6.3v9.3c0 .9.6 2 2.3 1.6C58.3 61.8 68 49 68 34 68 15.2 52.8 0 34 0z" fill="white"/><text x="80" y="55" font-family="system-ui, sans-serif" font-size="55" font-weight="700" fill="white">GitHub</text></svg>
