<svg xmlns="http://www.w3.org/2000/svg" viewBox="0 0 284 65"><path d="M141.68 16.25c-11.04 0-19 7.2-19 18.05s8.96 18.05 20 18.05c6.67 0 12.55-2.64 16.19-7.09l-7.65-4.42c-2.02 2.21-5.09 3.5-8.54 3.5-4.79 0-8.86-2.5-10.37-6.5h28.02c.22-1.12.35-2.28.35-3.54 0-10.85-7.93-18.05-19-18.05zm-9.46 14.5c1.25-3.99 4.67-6.5 9.45-6.5 4.79 0 8.21 2.51 9.45 6.5h-18.9zm-39.03 3.55c0 6 3.92 10 10 10 4.12 0 7.21-1.87 8.8-4.92l7.68 4.43c-3.18 5.3-9.14 8.49-16.48 8.49-11.05 0-19-7.2-19-18.05s7.96-18.05 19-18.05c7.34 0 13.29 3.19 16.48 8.49l-7.68 4.43c-1.59-3.05-4.68-4.92-8.8-4.92-6.07 0-10 4-10 10zm82.48-29v46h-9v-46h9zM37.59.25l36.95 64H.64l36.95-64zm92.38 5l-27.71 48-27.71-48H86.1l38.27 66.26 38.27-66.26h-10.66zm108.06 27h-7.99v-7h7.99v-13h9v13h12v7h-12v20.5c0 3 1.5 4.5 4.5 4.5h7.5v8h-8.5c-8 0-12.5-4.5-12.5-12.5V32.25zm68.28 0h-7.99v-7h7.99v-13h9v13h12v7h-12v20.5c0 3 1.5 4.5 4.5 4.5h7.5v8h-8.5c-8 0-12.5-4.5-12.5-12.5V32.25zm-68.56-14h9.02v46h-9.02v-46zm-52.48 32c0 6 3.92 10 10 10 4.12 0 7.21-1.87 8.8-4.92l7.68 4.43c-3.18 5.3-9.14 8.49-16.48 8.49-11.05 0-19-7.2-19-18.05s7.96-18.05 19-18.05c7.34 0 13.29 3.19 16.48 8.49l-7.68 4.43c-1.59-3.05-4.68-4.92-8.8-4.92-6.07 0-10 4-10 10z" fill="white"/></svg>
